PathFileType  4	(X/Y/Z) C:\Users\antoi\Documents\MyRepositories\mobilecap\ResultsAnalysis
DataRate	CameraRate	NumFrames	NumMarkers	Units	OrigDataRate	OrigDataStartFrame	OrigNumFrames
100.0	100.0	5	51	mm	100.0	103	136
Frame#	Time	r_knee			r_shank_antsup			r_ankle			r_calc			r_5meta			r_toe			L_knee			L_shank_antsup			L_ankle			L_calc			L_5meta			L_toe			r_sh2			r_sh3			r_sh4			L_sh2			L_sh3			r_thigh1			r_thigh2			r_thigh3			r_thigh4			r_thigh5			L_thigh1			L_thigh2			L_thigh3			L_thigh4			r.ASIS			r.PSIS			L.ASIS			L.PSIS			C7			R_Shoulder			L_Shoulder			R_Sternum			L_Sternum			R_humerus			R_elbow_med			R_elbow_lat			R_forearm			R_wrist_radius			R_wrist_ulna			L_humerus			L_elbow_med			L_elbow_lat			L_forearm			L_wrist_radius			L_wrist_ulna			R_HJC			L_HJC			R_HJC_reg			L_HJC_reg			
		X1	Y1	Z1	X2	Y2	Z2	X3	Y3	Z3	X4	Y4	Z4	X5	Y5	Z5	X6	Y6	Z6	X7	Y7	Z7	X8	Y8	Z8	X9	Y9	Z9	X10	Y10	Z10	X11	Y11	Z11	X12	Y12	Z12	X13	Y13	Z13	X14	Y14	Z14	X15	Y15	Z15	X16	Y16	Z16	X17	Y17	Z17	X18	Y18	Z18	X19	Y19	Z19	X20	Y20	Z20	X21	Y21	Z21	X22	Y22	Z22	X23	Y23	Z23	X24	Y24	Z24	X25	Y25	Z25	X26	Y26	Z26	X27	Y27	Z27	X28	Y28	Z28	X29	Y29	Z29	X30	Y30	Z30	X31	Y31	Z31	X32	Y32	Z32	X33	Y33	Z33	X34	Y34	Z34	X35	Y35	Z35	X36	Y36	Z36	X37	Y37	Z37	X38	Y38	Z38	X39	Y39	Z39	X40	Y40	Z40	X41	Y41	Z41	X42	Y42	Z42	X43	Y43	Z43	X44	Y44	Z44	X45	Y45	Z45	X46	Y46	Z46	X47	Y47	Z47	X48	Y48	Z48	X49	Y49	Z49	X50	Y50	Z50	X51	Y51	Z51	

103	1.02000000	1239.96626	559.68498	-44.63846	1300.13612	454.47548	-48.83968	1314.74666	107.18753	-73.65169	1276.33708	63.53716	-137.46099	1456.40200	71.16918	-6.71631	1493.18187	118.47862	-63.01308	935.06393	544.43150	-357.40736	951.11570	432.91306	-333.11569	790.62161	115.74038	-308.65697	724.15393	92.31325	-257.08111	919.52838	37.14467	-345.70805	955.74047	55.43762	-277.84789	1337.34740	348.09625	-67.91252	1236.64197	424.75785	-14.33405	1278.82742	315.86878	-17.89101	870.88917	444.31634	-376.13075	868.95151	324.52697	-376.86069	1247.39416	807.58443	-56.92913	1289.21642	704.48316	-68.84674	1266.96394	665.07733	-17.60265	1167.01401	766.91653	11.24744	1211.54787	659.70632	-8.43704	1077.91497	769.58393	-387.73885	1052.35498	637.03710	-369.19015	968.91466	785.11532	-415.31443	943.38509	650.92032	-386.08915	1140.21415	1036.10138	-68.46330	935.45398	1067.36632	-153.42698	1142.12879	1029.84849	-335.97954	934.98135	1073.19718	-250.28903	1022.70270	1573.12692	-206.57820	1065.99313	1493.71767	-16.83783	1103.79849	1519.54178	-374.81781	1150.35449	1481.62632	-170.08190	1152.85071	1479.63294	-217.48602	1042.50779	1324.05320	55.52274	943.80050	1116.33360	-5.48380	950.46879	1137.31391	74.83744	1022.03143	981.38000	104.34314	1038.90594	861.14331	120.66934	1000.35707	856.74669	140.51906	1142.87802	1360.84125	-456.86866	1100.24183	1133.56327	-443.16085	1143.05054	1162.13878	-506.44510	1286.39182	1094.38834	-445.27438	1380.98919	1019.49406	-443.48943	1362.40910	996.32847	-483.30490	1057.79250	955.59351	-103.55834	1060.15529	942.49498	-316.53063	1070.43358	944.53282	-111.42240	1069.57370	955.14346	-287.71060	
104	1.03000000	1246.53191	553.81013	-44.89464	1312.79714	453.56565	-48.96602	1348.72327	106.43172	-70.44959	1312.30888	59.20132	-132.79394	1493.96785	80.50324	-5.43145	1526.21274	129.55836	-62.71314	940.61989	545.05575	-356.87018	955.50462	433.36690	-333.14459	791.59766	117.68105	-308.42645	725.03989	95.06665	-256.81264	919.66618	37.13879	-345.79370	956.13324	55.18978	-277.87305	1356.11948	349.18610	-67.32660	1251.51082	420.55644	-13.07848	1300.37083	314.14039	-16.08544	875.23071	445.82267	-375.72691	871.84428	326.02505	-376.72470	1257.16678	799.95170	-57.70926	1295.79766	695.32069	-70.14041	1273.40119	656.82200	-18.42830	1176.33176	761.38427	11.21645	1217.91079	652.89065	-8.41788	1086.97613	768.09901	-388.14634	1059.50996	636.01141	-369.61431	978.15945	785.41894	-415.12564	950.57177	651.71074	-385.50212	1154.92512	1033.57218	-67.97156	949.60216	1065.32571	-152.14425	1155.55590	1027.87599	-335.65747	948.74683	1071.63750	-249.01405	1036.43001	1570.95849	-204.42603	1079.35125	1491.08388	-14.86046	1117.68830	1517.98923	-372.65496	1164.06226	1479.34027	-168.00801	1166.54147	1477.37523	-215.37638	1055.48120	1321.29763	57.06664	956.50307	1113.92258	-4.77778	962.77688	1134.74969	75.64218	1033.96550	978.67500	105.30211	1050.63060	858.40738	121.58701	1011.91805	854.02768	141.14173	1156.85915	1359.62989	-455.32310	1114.09830	1132.24839	-443.03173	1157.18482	1161.22467	-506.01784	1300.94490	1095.74267	-443.24719	1396.86698	1022.58247	-440.33667	1379.04651	999.07742	-480.37953	1072.02159	953.29571	-103.02842	1073.46021	940.69647	-316.03440	1084.79359	941.80364	-111.12282	1083.23598	953.29294	-287.45806	
105	1.04000000	1254.53371	548.64306	-44.73519	1325.57513	452.55150	-48.82522	1378.95938	106.21944	-67.59138	1344.05355	55.82503	-128.20944	1527.56346	89.07833	-5.33093	1555.21640	139.67793	-63.53892	946.96346	545.47646	-356.35568	960.58705	433.56549	-333.17636	792.69298	119.67357	-308.29127	725.99637	97.93973	-256.64974	919.82623	37.13860	-345.88402	956.55616	54.91770	-277.92382	1373.72468	349.97526	-66.65237	1266.25772	417.03383	-11.64324	1320.41038	312.81755	-14.23803	880.29467	447.17693	-375.36658	875.30449	327.40239	-376.64047	1267.26179	792.93298	-58.81731	1302.87132	686.89793	-71.70713	1281.25321	649.51839	-19.10286	1186.83652	756.39165	11.72344	1225.80367	646.79522	-7.81470	1096.55685	766.49716	-388.58988	1067.30584	634.87365	-370.10959	987.90220	785.54631	-414.90135	958.35640	652.26853	-384.97227	1169.66312	1030.80397	-67.62078	963.70626	1063.08928	-150.70061	1169.11431	1025.83426	-335.50053	962.57870	1069.79108	-247.58768	1050.18337	1568.59570	-202.12470	1092.87620	1488.25290	-12.78416	1131.53062	1516.30049	-370.40236	1177.84775	1476.89504	-165.86726	1180.26995	1474.94775	-213.19432	1068.63735	1318.35416	58.71260	969.37262	1111.33445	-3.99477	975.26419	1131.98900	76.52511	1046.14833	975.81060	106.31548	1062.53933	855.49757	122.51384	1023.74662	851.10724	141.77661	1170.71090	1358.21812	-453.69147	1127.71107	1130.76615	-442.78245	1171.10730	1160.11174	-505.48769	1315.18840	1096.71326	-441.24078	1412.33318	1025.19083	-437.26377	1395.27407	1001.36203	-477.51961	1086.38574	950.75031	-102.56612	1086.80491	938.78354	-315.61031	1099.06020	939.04720	-110.96393	1097.00588	951.25011	-287.36901	
106	1.05000000	1264.71459	544.51372	-44.27878	1338.86013	451.27546	-48.45042	1404.59987	105.95245	-65.19877	1370.54618	53.02226	-123.99127	1556.23064	95.64652	-6.22713	1579.65113	147.43598	-65.28795	954.24615	545.61918	-355.91822	966.45079	433.42752	-333.19152	793.93067	121.70657	-308.31616	727.03042	100.91772	-256.67262	920.03908	37.13860	-345.99343	956.98944	54.61399	-278.01930	1390.24581	350.04058	-65.94554	1281.07829	414.15222	-10.15533	1338.80096	311.55826	-12.50070	886.20337	448.29853	-375.09173	879.44538	328.59778	-376.63780	1278.00577	787.20406	-60.26045	1311.21962	680.08286	-73.53857	1291.30829	643.86072	-19.71642	1198.97419	752.30279	12.68885	1236.01402	641.93835	-6.82364	1106.74041	764.73826	-388.96846	1075.85199	633.55949	-370.63151	998.23700	785.41866	-414.62709	966.84736	652.50494	-384.51849	1184.22986	1027.77567	-67.32632	977.71183	1060.69801	-149.11444	1182.72791	1023.64950	-335.35213	976.44436	1067.68784	-246.00821	1063.97332	1566.06152	-199.67170	1106.57066	1485.21110	-10.61148	1145.32322	1514.48586	-368.06508	1191.70274	1474.29062	-163.66112	1194.04464	1472.36987	-210.94572	1081.96905	1315.20686	60.45800	982.39896	1108.55449	-3.11548	987.92569	1129.02474	77.49899	1058.57888	972.77606	107.38294	1074.66052	852.42301	123.45384	1035.84586	847.96978	142.43260	1184.42470	1356.61425	-451.97523	1141.10821	1129.11877	-442.38413	1184.82345	1158.81017	-504.86198	1329.12114	1097.28846	-439.25423	1427.40295	1027.29764	-434.28555	1411.10275	1003.17007	-474.74162	1100.69919	947.96114	-102.08583	1100.10654	936.71695	-315.16995	1113.06420	936.27392	-110.85139	1110.75426	949.00474	-287.30609	
107	1.06000000	1277.50307	541.59533	-43.68305	1352.93394	449.60846	-47.95418	1425.16574	105.14681	-63.38325	1391.16871	50.54483	-120.44879	1579.33657	99.14616	-7.81243	1599.33354	151.62891	-67.65148	962.56117	545.40790	-355.58378	973.14727	432.88248	-333.16657	795.33508	123.78211	-308.56390	728.15199	104.00108	-256.96384	920.32974	37.12783	-346.13828	957.40939	54.27263	-278.16907	1405.82424	349.07211	-65.33651	1296.16095	411.82235	-8.75973	1355.55967	310.05811	-11.05401	893.05228	449.11492	-374.94241	884.34548	329.55409	-376.73884	1289.70276	783.27970	-61.96663	1321.53255	675.55802	-75.54953	1304.06263	640.34210	-20.36813	1212.96602	749.38356	13.92871	1249.02582	638.69510	-5.71772	1117.58189	762.79470	-389.16880	1085.23297	632.01313	-371.10336	1009.23946	784.95320	-414.29297	976.15098	652.33337	-384.15223	1198.49944	1024.52378	-66.96617	991.61291	1058.19216	-147.43704	1196.33185	1021.25745	-335.04479	990.33406	1065.36720	-244.30465	1077.80991	1563.39856	-197.07128	1120.43010	1481.96416	-8.34304	1159.07529	1512.55356	-365.64988	1205.61934	1471.53584	-161.38984	1207.87588	1469.67903	-208.63759	1095.47637	1311.84760	62.29355	995.57879	1105.57441	-2.11864	1000.76463	1125.85649	78.57644	1071.24785	969.55592	108.49639	1087.02574	849.18666	124.40306	1048.22256	844.61007	143.11643	1197.99781	1354.82926	-450.18082	1154.32020	1127.31204	-441.80730	1198.33610	1157.33245	-504.14317	1342.74376	1097.46320	-437.28571	1442.06446	1028.87437	-431.41816	1426.51038	1004.49199	-472.06068	1114.82880	944.97234	-101.48693	1113.33790	934.45714	-314.60876	1126.73186	933.48308	-110.65118	1124.40043	946.55572	-287.10841	
